HIERARCHY
ROOT Hips
{
	OFFSET 0.00000 0.00000 0.00000
	CHANNELS 6 Xposition Yposition Zposition Zrotation Yrotation Xrotation 
	JOINT LHipJoint
	{
		OFFSET 0 0 0
		CHANNELS 3 Zrotation Yrotation Xrotation
		JOINT LeftUpLeg
		{
			OFFSET 1.36306 -1.79463 0.83929
			CHANNELS 3 Zrotation Yrotation Xrotation
			JOINT LeftLeg
			{
				OFFSET 2.44811 -6.72613 0.00000
				CHANNELS 3 Zrotation Yrotation Xrotation
				JOINT LeftFoot
				{
					OFFSET 2.56220 -7.03959 0.00000
					CHANNELS 3 Zrotation Yrotation Xrotation
					JOINT LeftToeBase
					{
						OFFSET 0.15764 -0.43311 2.32255
						CHANNELS 3 Zrotation Yrotation Xrotation
						End Site
						{
							OFFSET 0.00000 -0.00000 1.18966
						}
					}
				}
			}
		}
	}
	JOINT RHipJoint
	{
		OFFSET 0 0 0
		CHANNELS 3 Zrotation Yrotation Xrotation
		JOINT RightUpLeg
		{
			OFFSET -1.30552 -1.79463 0.83929
			CHANNELS 3 Zrotation Yrotation Xrotation
			JOINT RightLeg
			{
				OFFSET -2.54253 -6.98555 0.00000
				CHANNELS 3 Zrotation Yrotation Xrotation
				JOINT RightFoot
				{
					OFFSET -2.56826 -7.05623 0.00000
					CHANNELS 3 Zrotation Yrotation Xrotation
					JOINT RightToeBase
					{
						OFFSET -0.16473 -0.45259 2.36315
						CHANNELS 3 Zrotation Yrotation Xrotation
						End Site
						{
							OFFSET -0.00000 -0.00000 1.21082
						}
					}
				}
			}
		}
	}
	JOINT LowerBack
	{
		OFFSET 0 0 0
		CHANNELS 3 Zrotation Yrotation Xrotation
		JOINT Spine
		{
			OFFSET 0.02827 2.03559 -0.19338
			CHANNELS 3 Zrotation Yrotation Xrotation
			JOINT Spine1
			{
				OFFSET 0.05672 2.04885 -0.04275
				CHANNELS 3 Zrotation Yrotation Xrotation
				JOINT Neck
				{
					OFFSET 0 0 0
					CHANNELS 3 Zrotation Yrotation Xrotation
					JOINT Neck1
					{
						OFFSET -0.05417 1.74624 0.17202
						CHANNELS 3 Zrotation Yrotation Xrotation
						JOINT Head
						{
							OFFSET 0.10407 1.76136 -0.12397
							CHANNELS 3 Zrotation Yrotation Xrotation
							End Site
							{
								OFFSET 0.03720 1.77044 -0.06241
							}
						}
					}
				}
				JOINT LeftShoulder
				{
					OFFSET 0 0 0
					CHANNELS 3 Zrotation Yrotation Xrotation
					JOINT LeftArm
					{
						OFFSET 3.36241 1.20089 -0.31121
						CHANNELS 3 Zrotation Yrotation Xrotation
						JOINT LeftForeArm
						{
							OFFSET 4.98300 -0.00000 -0.00000
							CHANNELS 3 Zrotation Yrotation Xrotation
							JOINT LeftHand
							{
								OFFSET 3.48356 -0.00000 -0.00000
								CHANNELS 3 Zrotation Yrotation Xrotation
								JOINT LeftFingerBase
								{
									OFFSET 0 0 0
									CHANNELS 3 Zrotation Yrotation Xrotation
									JOINT LeftHandIndex1
									{
										OFFSET 0.71526 -0.00000 -0.00000
										CHANNELS 3 Zrotation Yrotation Xrotation
										End Site
										{
											OFFSET 0.57666 -0.00000 -0.00000
										}
									}
								}
								JOINT LThumb
								{
									OFFSET 0 0 0
									CHANNELS 3 Zrotation Yrotation Xrotation
									End Site
									{
										OFFSET 0.58547 -0.00000 0.58547
									}
								}
							}
						}
					}
				}
				JOINT RightShoulder
				{
					OFFSET 0 0 0
					CHANNELS 3 Zrotation Yrotation Xrotation
					JOINT RightArm
					{
						OFFSET -3.13660 1.37405 -0.40465
						CHANNELS 3 Zrotation Yrotation Xrotation
						JOINT RightForeArm
						{
							OFFSET -5.24190 -0.00000 -0.00000
							CHANNELS 3 Zrotation Yrotation Xrotation
							JOINT RightHand
							{
								OFFSET -3.44417 -0.00000 -0.00000
								CHANNELS 3 Zrotation Yrotation Xrotation
								JOINT RightFingerBase
								{
									OFFSET 0 0 0
									CHANNELS 3 Zrotation Yrotation Xrotation
									JOINT RightHandIndex1
									{
										OFFSET -0.62253 -0.00000 -0.00000
										CHANNELS 3 Zrotation Yrotation Xrotation
										End Site
										{
											OFFSET -0.50190 -0.00000 -0.00000
										}
									}
								}
								JOINT RThumb
								{
									OFFSET 0 0 0
									CHANNELS 3 Zrotation Yrotation Xrotation
									End Site
									{
										OFFSET -0.50956 -0.00000 0.50956
									}
								}
							}
						}
					}
				}
			}
		}
	}
}
MOTION
Frames: 16
Frame Time: 0.00694444
0.00 0.00 0.00 0 0 0 0 0 0 -21 0 0 0 0 0 0 0 0 0 0 0 0 0 0 21 0 0 0 0 0 0 0 0 0 0 0 0 0 0 0 0 0 0 0 0 0 0 -16 0 0 21 0 0 11 0 0 0 -8 0 0 0 0 0 0 0 0 0 0 0 0 0 0 0 0 0 0 0 0 8 0 0 0 0 0 0 0 0 0 0 0 0 0 0 0 0 0
0.00 0.00 0.00 -11.3526 -56.2366 16.3382 0.0000 0.0000 0.0000 -15.9208 1.1325 -33.7432 2.6135 10.0414 29.1108 0.1151 10.5358 -16.6552 1.0603 6.5469 18.3799 0.0000 0.0000 0.0000 21.2625 -7.2610 -6.5966 -4.7365 -13.0808 39.6717 1.3217 -21.4050 -16.8256 -0.0205 0.9243 -2.5407 6.7160 4.5601 11.4300 2.8996 6.9133 1.8424 -1.6989 3.3017 -4.0124 0.5712 6.0546 -7.8238 -6.5241 9.3171 18.3680 -1.3990 3.9013 7.2613 -0.0000 -0.0000 0.0000 -91.0015 7.3254 15.3590 14.1601 -22.9631 -2.8903 -0.0000 -0.0000 3.1653 8.0227 -5.0705 -0.7137 -7.1250 0.0000 -0.0000 -13.8704 24.8453 6.9547 -0.0000 -0.0000 0.0000 82.5668 1.9010 16.3862 -15.9585 25.4644 -3.6281 0.0000 -0.0000 -13.9814 -17.9620 -25.1033 7.8312 7.1250 -0.0000 -0.0000 12.5930 -55.7553 -3.3617
0.00 0.00 0.00 -5.7748 -53.1776 10.0580 0.0000 0.0000 0.0000 -21.6134 3.7401 -27.9852 2.0487 8.9668 25.6915 0.3816 6.0275 -15.4307 1.4501 7.6121 21.5419 0.0000 0.0000 0.0000 16.6857 -2.2322 -11.7749 -8.6387 -16.5695 54.8320 2.3896 -26.1190 -10.8532 -2.7248 -10.2356 29.7431 3.8275 4.5836 11.7854 2.3518 6.6484 1.3637 -0.7208 3.1948 -4.9953 -0.2967 5.6953 -7.3997 -5.8334 8.8701 19.2423 -1.0855 3.6660 7.3822 0.0000 0.0000 0.0000 -90.6340 7.9787 18.0970 15.8179 -25.2731 -3.5679 -0.0000 -0.0000 2.4106 5.5143 -5.7049 -0.5498 -7.1250 0.0000 -0.0000 -15.6274 24.2475 8.1243 0.0000 0.0000 0.0000 82.1161 -0.2451 14.2324 -17.4275 27.4178 -4.2823 0.0000 -0.0000 -14.4874 -16.5802 -24.2439 6.9702 7.1250 -0.0000 -0.0000 13.5853 -54.6307 -3.2593
0.00 0.00 0.00 0.1134 -39.9192 2.3710 0.0000 0.0000 0.0000 -27.5506 5.1556 -17.3047 1.9305 8.7199 24.9229 0.6729 -3.3309 -14.7240 0.1749 2.6939 7.4278 0.0000 0.0000 0.0000 12.0638 5.7438 -21.3969 -13.7465 -19.0353 71.4288 0.3048 -10.1307 -0.7175 -0.2253 -3.0550 8.4320 0.8287 2.6028 10.7611 1.4767 3.6057 1.2370 0.5443 1.7661 -4.7798 -0.8417 5.0602 -7.0318 -4.6332 7.9619 21.1950 -0.6858 3.2451 7.8561 0.0000 -0.0000 0.0000 -87.5224 4.6406 22.3123 22.1296 -33.1232 -6.6565 -0.0000 0.0000 -0.7398 9.8742 -6.5382 -1.1354 -7.1250 0.0000 -0.0000 -12.3853 23.3705 6.6065 0.0000 -0.0000 0.0000 82.6870 -0.8192 11.0605 -17.6119 27.6574 -4.3676 0.0000 -0.0000 -14.5772 -17.6345 -23.6954 7.2800 7.1250 -0.0000 -0.0000 12.2634 -54.2872 -2.8312
0.00 0.00 0.00 0.2607 -19.3938 2.3687 0.0000 0.0000 0.0000 -26.2903 2.7630 2.5285 1.5903 7.9547 22.5767 0.8865 -15.7134 -18.7809 0.8232 5.7889 16.1733 0.0000 0.0000 0.0000 10.1439 15.6250 -35.1139 -2.3111 -9.4861 27.3281 -0.3134 -3.3997 -12.3828 -0.1852 2.7714 -7.6429 -0.8762 2.2403 9.5836 1.6138 2.9559 0.7883 1.7726 1.4906 -4.6814 -0.7225 3.9687 -8.0547 -1.8776 6.0547 23.7594 0.0804 2.5709 8.7707 0.0000 0.0000 0.0000 -84.6866 0.2804 22.1063 35.7681 -45.3529 -15.3573 -0.0000 0.0000 -4.6991 14.9060 -8.6598 -2.2952 -7.1250 0.0000 -0.0000 -8.6312 21.0656 5.0081 0.0000 0.0000 0.0000 82.2163 -0.2971 11.0346 -15.2651 24.5141 -3.3352 0.0000 -0.0000 -9.7965 -15.9856 -24.2595 6.7130 7.1250 -0.0000 -0.0000 14.1931 -54.5322 -3.3752
0.00 0.00 0.00 -1.2013 -9.5621 2.8635 0.0000 0.0000 0.0000 -22.8372 -1.7494 9.8302 3.0472 10.7710 31.5115 -0.2338 -12.0953 -4.7268 0.0557 1.5229 4.1888 0.0000 0.0000 0.0000 13.4761 15.4526 -30.6133 -2.7923 -10.3509 30.1208 -0.0034 1.5169 -1.4011 -0.0539 1.4987 -4.1220 0.9266 1.5157 9.0452 3.1196 2.2387 0.9498 2.4412 1.1151 -4.1761 -0.5217 4.4929 -6.9666 -3.7161 7.2476 24.4096 -0.4710 2.9833 8.8920 -0.0000 -0.0000 0.0000 -86.2345 3.4297 3.1821 16.2596 -25.8713 -3.7585 -0.0000 0.0000 -2.1671 17.9279 -4.8588 -1.5697 -7.1250 0.0000 -0.0000 -6.5410 24.8735 3.2029 -0.0000 -0.0000 0.0000 82.3331 -1.4012 6.9365 -15.5145 24.8579 -3.4393 0.0000 -0.0000 -10.1319 -16.0556 -24.1013 6.7027 7.1250 -0.0000 -0.0000 14.0459 -54.3899 -3.2900
0.00 0.00 0.00 -4.7898 -7.0742 2.0363 0.0000 0.0000 0.0000 -17.0758 -2.1795 2.9940 6.4639 14.8633 46.8163 -0.0946 -7.7565 8.7103 0.2688 3.3348 9.2124 0.0000 0.0000 0.0000 19.0795 11.0767 -26.4159 -2.9442 -10.6041 30.9561 -0.0184 3.7800 -3.3924 -0.0520 -1.4720 4.0485 5.0339 1.5689 9.8911 4.4181 2.7865 1.6842 1.4126 1.3345 -3.7732 -0.4519 4.4626 -7.6620 -4.1736 7.3303 24.1643 -0.6098 2.9854 8.9614 -0.0000 -0.0000 0.0000 -86.6987 4.1975 -1.1495 12.3769 -20.3674 -2.2317 -0.0000 -0.0000 3.3648 14.9653 -1.9153 -0.5119 -7.1250 0.0000 -0.0000 -8.9505 27.9580 3.7519 -0.0000 -0.0000 0.0000 81.7156 -1.9520 7.1497 -15.2158 24.4459 -3.3147 0.0000 -0.0000 -12.1117 -15.9917 -24.8192 6.8596 7.1250 -0.0000 -0.0000 14.4652 -55.0834 -3.6377
0.00 0.00 0.00 -8.1860 -3.4503 0.7521 0.0000 0.0000 0.0000 -10.0070 -3.6755 -8.1497 11.6854 18.2545 64.9880 0.6334 -2.5971 16.1976 0.4098 4.1096 11.3853 0.0000 0.0000 0.0000 24.4556 9.8538 -19.0155 -2.4204 -9.6917 27.9841 -0.0999 -0.3356 -6.1012 -0.0159 -0.8139 2.2369 7.2060 2.1908 11.5613 5.9548 4.0358 2.3458 1.6057 1.9341 -3.9563 -0.7937 3.8313 -7.7566 -3.6445 6.3874 23.8096 -0.4676 2.5872 8.8030 -0.0000 0.0000 0.0000 -87.0669 5.4260 2.5306 11.4833 -19.0253 -1.9305 -0.0000 -0.0000 7.4981 9.1137 -1.4973 -0.2402 -7.1250 0.0000 -0.0000 -13.4608 28.3564 5.5949 -0.0000 0.0000 0.0000 80.5822 -0.6547 5.0147 -13.1663 21.5304 -2.5140 0.0000 -0.0000 -8.2749 -15.2665 -24.9517 6.5682 7.1250 -0.0000 -0.0000 15.2670 -55.0719 -3.8419
0.00 0.00 0.00 -8.7407 5.6055 -0.4840 0.0000 0.0000 0.0000 -7.7319 -4.3697 -25.4420 13.3928 18.9194 70.3412 -0.1708 -7.4059 1.4218 0.1709 2.6634 7.3430 0.0000 0.0000 0.0000 26.2423 3.2385 -12.6149 -2.6435 -10.0943 29.2826 -0.5324 -2.0619 -14.6850 -0.1630 -2.6008 7.1693 9.1698 3.1850 10.8730 5.6433 5.4196 3.0834 0.0938 2.6700 -2.5507 -2.2677 2.3611 -6.0432 -2.3683 4.2409 22.8784 -0.0294 1.6463 8.0713 -0.0000 -0.0000 0.0000 -87.5009 8.6676 15.2909 16.1435 -25.7148 -3.7080 -0.0000 0.0000 -0.9837 9.8133 -3.1168 -0.5388 -7.1250 0.0000 -0.0000 -12.7467 26.7601 5.7766 -0.0000 -0.0000 0.0000 79.6657 2.1039 4.9957 -12.5365 20.6044 -2.2876 0.0000 -0.0000 -6.3771 -17.3495 -24.9119 7.4968 7.1250 -0.0000 -0.0000 13.1280 -55.4423 -3.4077
0.00 0.00 0.00 -10.7174 11.1231 -0.5430 0.0000 0.0000 0.0000 -7.4045 -2.1125 -37.3963 8.3908 16.3993 53.9582 0.0230 -9.3950 -6.9866 0.0000 -0.0241 -0.0663 0.0000 0.0000 0.0000 29.7268 -0.2078 -8.1799 -2.7431 -10.2671 29.8461 -1.0583 -4.5871 -21.5987 -0.1458 -2.4604 6.7798 10.6700 4.4004 11.7983 5.4760 7.3739 2.6837 -1.1944 3.5945 -3.1495 -2.7644 2.0647 -5.5411 -1.8545 3.7595 21.6212 0.1690 1.4721 7.5404 0.0000 -0.0000 0.0000 -88.6906 10.2676 21.2116 20.5568 -31.3073 -5.8179 -0.0000 0.0000 -2.7040 11.0058 -4.6564 -0.9045 -7.1250 0.0000 -0.0000 -11.7102 25.2218 5.7178 0.0000 -0.0000 0.0000 77.3466 2.9205 12.6965 -16.0028 25.5244 -3.6472 0.0000 -0.0000 -11.5078 -15.7205 -24.5498 6.6703 7.1250 -0.0000 -0.0000 14.6038 -54.7667 -3.5602
0.00 0.00 0.00 -7.7802 18.3600 -2.9641 0.0000 0.0000 0.0000 -18.2267 -0.2030 -31.0574 3.6386 11.6633 34.5511 0.7230 -0.9419 -15.7729 2.0338 8.9362 25.5960 0.0000 0.0000 0.0000 22.1351 -3.4137 -0.4909 -7.6890 -15.8857 51.4347 0.1347 -8.2788 2.4517 -0.2379 3.1390 -8.6659 5.3483 6.2926 10.5175 1.3972 9.0075 2.0008 -2.6343 4.4329 -3.1589 -3.1875 4.4523 -5.4909 -0.6182 7.0405 23.1261 0.9288 3.1128 7.9569 -0.0000 0.0000 0.0000 -90.5389 12.1144 23.9291 16.2505 -25.8592 -3.7546 -0.0000 0.0000 -7.9171 20.0684 -8.0813 -2.9399 -7.1250 0.0000 -0.0000 -4.9124 21.3965 2.7918 -0.0000 0.0000 0.0000 80.1585 10.3735 12.5231 -18.1788 28.3854 -4.6339 0.0000 -0.0000 -14.3215 -21.1538 -24.9336 9.2647 7.1250 -0.0000 -0.0000 9.1860 -56.2394 -2.5472
0.00 0.00 0.00 -18.7849 76.1662 -18.2236 0.0000 0.0000 0.0000 -22.5067 -18.6905 11.1613 4.0511 12.2281 36.5439 -0.1778 -21.5200 -13.7527 0.1757 2.7004 7.4456 0.0000 0.0000 0.0000 10.4637 18.6852 -27.7694 -2.3905 -9.6360 27.8060 -0.1149 5.6412 -6.7273 -0.0482 1.4165 -3.8955 0.9679 4.7943 10.5683 1.8723 6.6147 2.7236 0.5291 3.3153 -3.1692 -11.8517 6.2505 2.6256 18.0116 9.4149 -6.0070 7.0800 4.5162 -3.6370 0.0000 0.0000 0.0000 -84.6908 10.8237 28.4441 29.8303 -40.7475 -11.2987 -0.0000 0.0000 -10.3778 21.4740 -7.1076 -2.7866 -7.1250 0.0000 -0.0000 -3.8848 22.3538 2.1201 0.0000 0.0000 0.0000 86.0692 -1.8558 -5.7389 -11.0732 18.4004 -1.7990 0.0000 -0.0000 -1.3259 -16.8436 -22.5132 6.6123 7.1250 -0.0000 -0.0000 12.5384 -52.9610 -2.4870
0.00 0.00 0.00 -94.0359 80.2267 -96.4796 0.0000 0.0000 0.0000 -12.4041 -14.4514 -10.9679 15.0929 19.4126 75.5165 -1.6495 -22.0327 7.5904 4.4727 12.7641 38.4919 0.0000 0.0000 0.0000 24.3398 1.7701 -8.7154 -0.5804 -4.8785 13.5623 0.0028 2.3142 -1.4071 -0.0512 -1.4607 4.0173 6.7800 5.1905 13.1707 3.4636 8.1351 3.5009 -1.3965 4.0963 -3.2176 -8.2806 6.1355 8.2997 12.0477 10.6423 -20.9659 4.3021 4.8622 -8.9972 -0.0000 -0.0000 0.0000 -86.8157 10.5775 10.4584 17.1269 -27.0248 -4.1448 -0.0000 0.0000 -4.8473 17.6893 -6.2391 -1.9851 -7.1250 0.0000 -0.0000 -6.6753 23.4427 3.4916 -0.0000 -0.0000 0.0000 79.5018 6.0759 -0.2087 -9.2886 15.6192 -1.2767 0.0000 0.0000 2.0880 -19.5609 -23.8196 8.1660 7.1250 -0.0000 -0.0000 10.3545 -54.7840 -2.5085
0.00 0.00 0.00 -115.7730 77.3947 -118.1290 0.0000 0.0000 0.0000 -9.9808 -13.1690 -16.8536 16.1847 19.6474 78.7814 -0.3674 -17.5128 -8.4520 0.0320 1.1544 3.1737 0.0000 0.0000 0.0000 26.8143 -3.5403 -1.0111 0.0000 0.0000 -0.0000 -0.0338 -1.4589 3.2710 -0.0005 -0.1484 0.4078 9.2635 4.6418 14.1679 3.3372 7.9240 2.6681 -2.9870 3.9006 -4.3045 -5.6697 5.7177 9.4698 9.7588 10.4328 -23.9727 3.0762 4.7246 -9.9759 0.0000 0.0000 0.0000 -85.7396 12.7482 13.5954 18.6271 -28.9527 -4.8490 -0.0000 0.0000 -1.2269 14.6361 -7.0018 -1.8234 -7.1250 0.0000 -0.0000 -8.8882 22.7690 4.8121 0.0000 0.0000 0.0000 78.0496 6.1376 3.2675 -10.7909 17.9670 -1.7109 0.0000 -0.0000 -2.9558 -20.1842 -24.2906 8.5993 7.1250 -0.0000 -0.0000 9.9159 -55.3858 -2.5463
0.00 0.00 0.00 -153.9120 59.6444 -155.2430 0.0000 0.0000 0.0000 -9.4600 0.1919 -31.9154 11.1329 17.9995 63.2124 0.8684 2.1201 -18.4904 5.0591 -13.4501 -41.0775 0.0000 0.0000 0.0000 32.6489 -13.7431 1.7750 0.0000 0.0000 -0.0000 0.3732 -11.4282 -8.3474 -0.0696 -1.7024 4.6838 11.3398 5.5948 12.7134 1.8675 9.2559 1.8895 -5.6466 4.5395 -3.6143 -1.2721 3.1683 1.6843 7.4539 8.9819 -28.6151 1.8704 4.5746 -9.7250 -0.0000 0.0000 0.0000 -83.6071 10.6350 21.8826 24.5503 -35.7408 -8.0257 -0.0000 0.0000 -5.9539 20.2881 -8.5919 -3.1611 -7.1250 0.0000 -0.0000 -4.7558 20.8429 2.7618 -0.0000 0.0000 0.0000 72.2075 8.7679 1.4425 -17.1659 27.0759 -4.1626 0.0000 -0.0000 -9.6786 -25.2011 -26.2316 11.7500 7.1250 -0.0000 -0.0000 5.3720 -58.4711 -1.7731
0.00 0.00 0.00 -154.1590 71.3179 -162.9130 0.0000 0.0000 0.0000 -13.6060 24.9471 -23.6102 6.7062 15.0794 47.7542 1.2018 -7.0082 -19.5838 4.4806 -12.7739 -38.5277 0.0000 0.0000 0.0000 28.1930 2.6748 -3.6468 -5.6810 -14.1119 43.6875 -0.4075 -10.0295 -19.5725 -0.0598 1.5774 -4.3391 -1.2184 13.1770 17.5453 2.0541 17.5824 4.1119 -1.2086 8.7462 -6.0361 1.3163 2.5651 -9.3002 4.7881 5.0803 -13.5486 1.3127 2.8891 -2.8889 0.0000 -0.0000 0.0000 -82.8382 8.0171 24.8613 28.2140 -39.3125 -10.2590 -0.0000 0.0000 -1.1410 21.8673 -14.1381 -5.5988 -7.1250 0.0000 -0.0000 -3.8067 14.8179 2.7127 0.0000 -0.0000 0.0000 73.9719 11.9137 5.5004 -23.3483 34.4675 -7.3345 0.0000 -0.0000 -7.5103 -21.5477 -24.2313 9.2055 7.1250 -0.0000 -0.0000 8.4689 -55.6016 -2.2150
